<svg xmlns="http://www.w3.org/2000/svg" version="1.1" xmlns:xlink="http://www.w3.org/1999/xlink" width="2000" height="136" viewBox="0 0 2000 136"><svg xml:space="preserve" width="2000" height="136" data-version="2" data-id="lg_sbdqGmSEUlBIH0MKHm" viewBox="0 0 560 136" x="0" y="0"><rect width="100%" height="100%" fill="transparent"></rect><rect width="201.73" height="201.73" x="-100.86" y="-100.86" fill="#3661c1" rx="13" ry="13" transform="translate(71.76 68)scale(.6572)"></rect><path fill="#7b7ddb" d="M163.875 18.79h27.72v4.82h-22.04v16.03h20.52v4.76h-20.52v16.23h22.37v4.82h-28.05Z" paint-order="stroke"></path><rect width="28.05" height="46.66" x="-14.03" y="-23.33" fill="none" rx="0" ry="0" transform="translate(178.4 42.62)"></rect><path fill="#7b7ddb" d="M201.435 18.79h16.76q5.35 0 8.58 1.58 3.23 1.59 4.69 4.36 1.45 2.77 1.45 6.4 0 3.1-1.36 5.21-1.35 2.12-3.36 3.24t-4.13 1.45v.4q1.72.06 3.57.82 1.85.76 3.46 2.18 1.62 1.42 2.64 3.56 1.03 2.15 1.03 5.05 0 3.63-1.52 6.44-1.52 2.8-5.02 4.39-3.5 1.58-9.5 1.58h-17.29Zm17.22 41.84q4.29 0 6.54-.95 2.24-.96 3.06-2.74.83-1.79.83-4.03 0-2.57-1.02-4.55-1.03-1.98-3.24-3.14-2.21-1.15-5.84-1.15h-11.88v16.56Zm-.72-21.32q4.75 0 7.02-2.07 2.28-2.08 2.28-5.98 0-2.24-.72-3.99-.73-1.75-2.68-2.71-1.94-.95-5.64-.95h-11.09v15.7Z" paint-order="stroke"></path><rect width="33.33" height="46.66" x="-16.66" y="-23.33" fill="none" rx="0" ry="0" transform="translate(218.6 42.62)"></rect><path fill="#7b7ddb" d="M242.815 18.79h27.72v4.82h-22.05v16.03h20.53v4.76h-20.53v16.23h22.38v4.82h-28.05Z" paint-order="stroke"></path><rect width="28.05" height="46.66" x="-14.03" y="-23.33" fill="none" rx="0" ry="0" transform="translate(257.34 42.62)"></rect><path fill="#7b7ddb" d="M296.335 25.92h-.33l-14.12 39.53h-5.61l17.09-46.66h5.81l17.16 46.66h-5.94Zm11.36 26.59h-22.97v-4.95h22.97Z" paint-order="stroke"></path><rect width="40.06" height="46.66" x="-20.03" y="-23.33" fill="none" rx="0" ry="0" transform="translate(296.8 42.62)"></rect><path fill="#7b7ddb" d="M356.665 18.79v31.02q0 4.82-1.85 8.58t-5.74 5.84q-3.9 2.08-10.03 2.08-6.08 0-9.97-2.08-3.89-2.08-5.74-5.84t-1.85-8.58V18.79h5.68v30.42q0 3.7 1.08 6.47 1.09 2.77 3.7 4.26 2.61 1.48 7.1 1.48 4.62 0 7.19-1.48 2.57-1.49 3.7-4.26 1.12-2.77 1.12-6.47V18.79Z" paint-order="stroke"></path><rect width="35.18" height="47.52" x="-17.59" y="-23.76" fill="none" rx="0" ry="0" transform="translate(339.57 43.05)"></rect><path fill="#7b7ddb" d="M362.145 18.79h35.37v4.82h-14.85v41.84h-5.61V23.61h-14.91Z" paint-order="stroke"></path><rect width="35.37" height="46.66" x="-17.68" y="-23.33" fill="none" rx="0" ry="0" transform="translate(380.33 42.62)"></rect><path fill="#7b7ddb" d="m407.025 18.79 13.2 22.11h.26l13.13-22.11h6.41l-16.83 27.39v19.27h-5.61V46.18l-17.1-27.39Z" paint-order="stroke"></path><rect width="39.54" height="46.66" x="-19.77" y="-23.33" fill="none" rx="0" ry="0" transform="translate(420.75 42.62)"></rect><path fill="#7b7ddb" d="M162.715 111.55q-.57 0-.94-.31-.38-.32-.38-.86V89.29q0-.51.33-.84.33-.33.84-.33h7.29q1.8 0 3.26.77 1.45.76 2.31 2.08.85 1.32.85 3.06 0 1.62-.87 2.88-.87 1.26-2.28 1.92 2.01.54 3.24 2.03 1.23 1.48 1.23 3.76 0 2.04-.93 3.6t-2.56 2.45q-1.64.88-3.74.88Zm1.02-2.25h6.63q1.44 0 2.55-.57 1.11-.57 1.74-1.62.63-1.05.63-2.49 0-1.35-.63-2.35-.63-1.01-1.74-1.56-1.11-.56-2.55-.56h-6.63Zm0-11.4h6.12q1.8 0 2.97-1.02 1.17-1.02 1.17-2.85 0-1.8-1.17-2.73-1.17-.93-2.97-.93h-6.12Z" paint-order="stroke"></path><rect width="16.2" height="23.43" x="-8.1" y="-11.71" fill="none" rx="0" ry="0" transform="translate(170 100.34)"></rect><path fill="#7b7ddb" d="M189.385 111.7q-2.43 0-4.3-1.06-1.88-1.07-2.94-2.96-1.07-1.89-1.07-4.32 0-2.46 1.01-4.33 1-1.88 2.77-2.96t4.08-1.08q2.28 0 3.98 1.04 1.69 1.03 2.62 2.86.93 1.83.93 4.17 0 .48-.3.77-.3.28-.78.28h-12.75v-1.92h12.99l-1.29.93q.03-1.74-.63-3.12-.66-1.38-1.87-2.16-1.22-.78-2.9-.78-1.71 0-3 .81t-1.99 2.24q-.71 1.42-.71 3.25t.8 3.24q.79 1.41 2.17 2.22 1.38.81 3.18.81 1.08 0 2.18-.37 1.09-.38 1.75-.95.33-.27.75-.28.42-.02.72.22.39.36.41.78.01.42-.35.72-.99.84-2.52 1.4-1.53.55-2.94.55" paint-order="stroke"></path><rect width="15.39" height="16.71" x="-7.7" y="-8.36" fill="none" rx="0" ry="0" transform="translate(189.27 103.85)"></rect><path fill="#7b7ddb" d="M206.995 111.7q-2.31 0-4.14-1.09-1.83-1.1-2.89-2.99-1.07-1.89-1.07-4.26 0-2.4 1.1-4.29 1.09-1.89 2.98-2.98 1.89-1.1 4.26-1.1t4.25 1.1q1.87 1.09 2.97 2.98 1.09 1.89 1.12 4.29l-.93.72q0 2.16-1 3.89-1.01 1.72-2.73 2.73-1.73 1-3.92 1m.24-2.1q1.74 0 3.11-.81 1.36-.81 2.16-2.23.79-1.43.79-3.2 0-1.8-.79-3.21-.8-1.41-2.16-2.23-1.37-.83-3.11-.83-1.71 0-3.09.83-1.38.82-2.19 2.23-.81 1.41-.81 3.21 0 1.77.81 3.2.81 1.42 2.19 2.23t3.09.81m7.17 1.95q-.51 0-.84-.31-.33-.32-.33-.83v-5.13l.57-2.37 1.77.45v7.05q0 .51-.33.83-.33.31-.84.31" paint-order="stroke"></path><rect width="16.68" height="16.71" x="-8.34" y="-8.36" fill="none" rx="0" ry="0" transform="translate(207.74 103.85)"></rect><path fill="#7b7ddb" d="M227.215 111.73q-2.13 0-3.81-.88-1.68-.89-2.65-2.6-.98-1.71-.98-4.17v-7.8q0-.48.33-.81.33-.33.81-.33.51 0 .84.33.33.33.33.81v7.8q0 1.86.71 3.06.7 1.2 1.92 1.8 1.21.6 2.74.6 1.47 0 2.66-.57 1.18-.57 1.87-1.56.69-.99.69-2.25h1.65q-.09 1.89-1.03 3.38-.95 1.48-2.54 2.34-1.59.85-3.54.85m6.6-.18q-.51 0-.82-.31-.32-.32-.32-.86v-14.1q0-.51.32-.82.31-.32.82-.32t.84.32q.33.31.33.82v14.1q0 .54-.33.86-.33.31-.84.31" paint-order="stroke"></path><rect width="15.21" height="16.59" x="-7.61" y="-8.29" fill="none" rx="0" ry="0" transform="translate(227.88 103.94)"></rect><path fill="#7b7ddb" d="M246.805 111.55q-1.59 0-2.83-.75-1.25-.75-1.97-2.05-.72-1.31-.72-2.99V91.09q0-.51.32-.84.31-.33.82-.33t.84.33q.33.33.33.84v14.67q0 1.53.9 2.51.9.97 2.31.97h.81q.48 0 .78.33.3.33.3.84t-.36.83q-.36.31-.9.31Zm-7.47-13.8q-.45 0-.75-.28-.3-.29-.3-.71 0-.45.3-.73.3-.29.75-.29h7.65q.45 0 .75.29.3.28.3.73 0 .42-.3.71-.3.28-.75.28Z" paint-order="stroke"></path><rect width="10.41" height="21.63" x="-5.21" y="-10.81" fill="none" rx="0" ry="0" transform="translate(243.99 101.24)"></rect><path fill="#7b7ddb" d="M255.265 118.69q-.24 0-.54-.12-1.02-.45-.57-1.44l9.69-21.36q.45-.96 1.44-.54 1.02.42.57 1.41l-9.72 21.36q-.3.69-.87.69m3.33-7.65q-.45.21-.84.08-.39-.14-.63-.59l-6.69-13.86q-.21-.45-.06-.84.15-.39.6-.6.45-.21.84-.07.39.13.6.58l6.57 13.86q.24.45.15.84-.09.39-.54.6" paint-order="stroke"></path><rect width="15.87" height="23.73" x="-7.94" y="-11.86" fill="none" rx="0" ry="0" transform="translate(258.7 107.33)"></rect><path fill="#7b7ddb" d="M276.685 111.55q-.69 0-.99-.57-.3-.57-.06-1.11l8.82-20.94q.33-.81 1.14-.81.78 0 1.11.81l8.85 20.97q.27.57-.07 1.11-.35.54-.98.54-.36 0-.64-.18-.29-.18-.47-.54l-8.25-20.01h.93l-8.31 20.01q-.15.36-.43.54-.29.18-.65.18m1.98-5.58.9-2.01h12.18l.9 2.01Z" paint-order="stroke"></path><rect width="20.29" height="23.43" x="-10.14" y="-11.71" fill="none" rx="0" ry="0" transform="translate(286.1 100.34)"></rect><path fill="#7b7ddb" d="M305.185 111.55q-1.59 0-2.83-.75-1.25-.75-1.97-2.05-.72-1.31-.72-2.99V91.09q0-.51.32-.84.31-.33.82-.33t.84.33q.33.33.33.84v14.67q0 1.53.9 2.51.9.97 2.31.97h.81q.48 0 .78.33.3.33.3.84t-.36.83q-.36.31-.9.31Zm-7.47-13.8q-.45 0-.75-.28-.3-.29-.3-.71 0-.45.3-.73.3-.29.75-.29h7.65q.45 0 .75.29.3.28.3.73 0 .42-.3.71-.3.28-.75.28Z" paint-order="stroke"></path><rect width="10.41" height="21.63" x="-5.21" y="-10.81" fill="none" rx="0" ry="0" transform="translate(302.37 101.24)"></rect><path fill="#7b7ddb" d="M326.635 111.55q-.48 0-.82-.34-.35-.35-.35-.83v-7.5l-8.16-12.93q-.3-.45-.22-.87.07-.42.37-.69.3-.27.75-.27.36 0 .59.15.22.15.4.42l8.1 13.05h-1.26l8.07-12.99q.21-.33.47-.48.25-.15.61-.15.42 0 .71.29.28.28.33.7.04.42-.23.84l-8.19 12.93v7.5q0 .48-.34.83-.35.34-.83.34" paint-order="stroke"></path><rect width="19.2" height="23.43" x="-9.6" y="-11.71" fill="none" rx="0" ry="0" transform="translate(327.14 100.34)"></rect><path fill="#7b7ddb" d="M343.525 111.7q-2.4 0-4.29-1.08-1.89-1.08-2.97-2.97-1.08-1.89-1.08-4.29 0-2.43 1.08-4.32 1.08-1.89 2.97-2.97 1.89-1.08 4.29-1.08 2.4 0 4.28 1.08 1.87 1.08 2.95 2.97 1.08 1.89 1.11 4.32 0 2.4-1.09 4.29-1.1 1.89-2.97 2.97-1.88 1.08-4.28 1.08m0-2.1q1.74 0 3.12-.81 1.38-.81 2.16-2.22.78-1.41.78-3.21t-.78-3.22q-.78-1.43-2.16-2.24-1.38-.81-3.12-.81-1.74 0-3.12.81-1.38.81-2.17 2.24-.8 1.42-.8 3.22 0 1.8.8 3.21.79 1.41 2.17 2.22 1.38.81 3.12.81" paint-order="stroke"></path><rect width="16.68" height="16.71" x="-8.34" y="-8.36" fill="none" rx="0" ry="0" transform="translate(344.02 103.85)"></rect><path fill="#7b7ddb" d="M363.505 111.73q-2.13 0-3.81-.88-1.68-.89-2.65-2.6-.98-1.71-.98-4.17v-7.8q0-.48.33-.81.33-.33.81-.33.51 0 .84.33.33.33.33.81v7.8q0 1.86.71 3.06.7 1.2 1.92 1.8 1.21.6 2.74.6 1.47 0 2.66-.57 1.18-.57 1.87-1.56.69-.99.69-2.25h1.65q-.09 1.89-1.03 3.38-.95 1.48-2.54 2.34-1.59.85-3.54.85m6.6-.18q-.51 0-.82-.31-.32-.32-.32-.86v-14.1q0-.51.32-.82.31-.32.82-.32t.84.32q.33.31.33.82v14.1q0 .54-.33.86-.33.31-.84.31" paint-order="stroke"></path><rect width="15.21" height="16.59" x="-7.61" y="-8.29" fill="none" rx="0" ry="0" transform="translate(364.17 103.94)"></rect><path fill="#7b7ddb" d="M377.635 101.44q.09-1.86.98-3.33.88-1.47 2.31-2.31 1.42-.84 3.16-.84 1.38 0 2.13.39t.57 1.14q-.12.45-.4.6-.29.15-.69.12-.41-.03-.92-.06-1.68-.15-2.98.35-1.31.49-2.07 1.51-.77 1.02-.77 2.43Zm.18 10.11q-.54 0-.84-.3-.3-.3-.3-.84V96.28q0-.54.3-.84.3-.3.84-.3t.84.3q.3.3.3.84v14.13q0 .54-.3.84-.3.3-.84.3" paint-order="stroke"></path><rect width="10.21" height="16.59" x="-5.1" y="-8.29" fill="none" rx="0" ry="0" transform="translate(382.28 103.75)"></rect><path fill="#7b7ddb" d="M398.815 111.55q-.48 0-.82-.34-.35-.35-.35-.83V89.29q0-.51.33-.84.33-.33.84-.33h14.07q.51 0 .84.32.33.31.33.82 0 .45-.33.78t-.84.33h-12.9v8.28h9.39q.51 0 .84.33.33.33.33.81 0 .48-.33.81-.33.33-.84.33h-9.39v9.45q0 .48-.33.83-.33.34-.84.34" paint-order="stroke"></path><rect width="16.41" height="23.43" x="-8.21" y="-11.71" fill="none" rx="0" ry="0" transform="translate(406.35 100.34)"></rect><path fill="#7b7ddb" d="M419.605 111.55q-.54 0-.85-.31-.32-.32-.32-.86V96.31q0-.54.32-.85.31-.32.85-.32.51 0 .83.32.31.31.31.85v14.07q0 .54-.31.86-.32.31-.83.31m-.03-19.53q-.66 0-1.14-.48-.48-.48-.48-1.17 0-.75.5-1.18.49-.44 1.15-.44.63 0 1.13.44.49.43.49 1.18 0 .69-.48 1.17t-1.17.48" paint-order="stroke"></path><rect width="3.27" height="22.8" x="-1.64" y="-11.4" fill="none" rx="0" ry="0" transform="translate(420.09 100.65)"></rect><path fill="#7b7ddb" d="M440.695 111.55q-.51 0-.84-.33-.33-.33-.33-.81v-7.8q0-1.86-.7-3.06-.71-1.2-1.92-1.8-1.22-.6-2.75-.6-1.47 0-2.65.57-1.19.57-1.88 1.56-.69.99-.69 2.25h-1.65q.06-1.89 1.02-3.37.96-1.49 2.55-2.34 1.59-.86 3.54-.86 2.13 0 3.81.89 1.68.88 2.66 2.59.97 1.71.97 4.17v7.8q0 .48-.33.81-.33.33-.81.33m-12.9 0q-.54 0-.85-.31-.32-.32-.32-.83v-14.1q0-.54.32-.85.31-.32.85-.32.51 0 .83.32.31.31.31.85v14.1q0 .51-.31.83-.32.31-.83.31" paint-order="stroke"></path><rect width="15.21" height="16.59" x="-7.61" y="-8.29" fill="none" rx="0" ry="0" transform="translate(434.73 103.75)"></rect><path fill="#7b7ddb" d="M454.165 111.7q-2.37 0-4.2-1.06-1.83-1.07-2.86-2.96-1.04-1.89-1.04-4.32 0-2.46 1.08-4.35 1.08-1.89 2.97-2.95 1.89-1.07 4.29-1.07 2.43 0 4.31 1.07 1.87 1.06 2.94 2.95 1.06 1.89 1.09 4.35l-1.35.72q0 2.22-.93 3.95-.93 1.72-2.56 2.7-1.64.97-3.74.97m.3 6.33q-2.37 0-4.17-.88-1.8-.89-2.97-2.42-.33-.36-.28-.78.04-.42.43-.69.39-.27.87-.18.48.09.75.45.87 1.08 2.24 1.74 1.36.66 3.16.66 1.68 0 3.03-.81 1.35-.81 2.15-2.28.79-1.47.79-3.45v-4.56l.87-1.74 1.41.27v6.12q0 2.43-1.08 4.37-1.08 1.93-2.94 3.06-1.86 1.12-4.26 1.12m-.06-8.43q1.77 0 3.14-.79 1.36-.8 2.14-2.21t.78-3.24q0-1.83-.78-3.25-.78-1.43-2.14-2.22-1.37-.8-3.14-.8t-3.15.8q-1.38.79-2.16 2.22-.78 1.42-.78 3.25t.78 3.24q.78 1.41 2.16 2.21 1.38.79 3.15.79" paint-order="stroke"></path><rect width="16.68" height="23.04" x="-8.34" y="-11.52" fill="none" rx="0" ry="0" transform="translate(454.9 107.01)"></rect><path fill="#7b7ddb" d="M474.685 111.7q-2.43 0-4.3-1.06-1.88-1.07-2.94-2.96-1.07-1.89-1.07-4.32 0-2.46 1.01-4.33 1-1.88 2.77-2.96t4.08-1.08q2.28 0 3.98 1.04 1.69 1.03 2.62 2.86.93 1.83.93 4.17 0 .48-.3.77-.3.28-.78.28h-12.75v-1.92h12.99l-1.29.93q.03-1.74-.63-3.12-.66-1.38-1.87-2.16-1.22-.78-2.9-.78-1.71 0-3 .81t-1.99 2.24q-.71 1.42-.71 3.25t.8 3.24q.79 1.41 2.17 2.22 1.38.81 3.18.81 1.08 0 2.18-.37 1.09-.38 1.75-.95.33-.27.75-.28.42-.02.72.22.39.36.41.78.01.42-.35.72-.99.84-2.52 1.4-1.53.55-2.94.55" paint-order="stroke"></path><rect width="15.39" height="16.71" x="-7.7" y="-8.36" fill="none" rx="0" ry="0" transform="translate(474.57 103.85)"></rect><path fill="#7b7ddb" d="M486.625 101.44q.09-1.86.98-3.33.88-1.47 2.31-2.31 1.42-.84 3.16-.84 1.38 0 2.13.39t.57 1.14q-.12.45-.4.6-.29.15-.69.12-.41-.03-.92-.06-1.68-.15-2.98.35-1.31.49-2.07 1.51-.77 1.02-.77 2.43Zm.18 10.11q-.54 0-.84-.3-.3-.3-.3-.84V96.28q0-.54.3-.84.3-.3.84-.3t.84.3q.3.3.3.84v14.13q0 .54-.3.84-.3.3-.84.3" paint-order="stroke"></path><rect width="10.21" height="16.59" x="-5.1" y="-8.29" fill="none" rx="0" ry="0" transform="translate(491.27 103.75)"></rect><path fill="#7b7ddb" d="M505.825 111.55q-1.59 0-2.83-.75-1.25-.75-1.97-2.05-.72-1.31-.72-2.99V91.09q0-.51.32-.84.31-.33.82-.33t.84.33q.33.33.33.84v14.67q0 1.53.9 2.51.9.97 2.31.97h.81q.48 0 .78.33.3.33.3.84t-.36.83q-.36.31-.9.31Zm-7.47-13.8q-.45 0-.75-.28-.3-.29-.3-.71 0-.45.3-.73.3-.29.75-.29h7.65q.45 0 .75.29.3.28.3.73 0 .42-.3.71-.3.28-.75.28Z" paint-order="stroke"></path><rect width="10.41" height="21.63" x="-5.21" y="-10.81" fill="none" rx="0" ry="0" transform="translate(503.01 101.24)"></rect><path fill="#7b7ddb" d="M513.115 111.55q-.54 0-.85-.31-.32-.32-.32-.86V96.31q0-.54.32-.85.31-.32.85-.32.51 0 .83.32.31.31.31.85v14.07q0 .54-.31.86-.32.31-.83.31m-.03-19.53q-.66 0-1.14-.48-.48-.48-.48-1.17 0-.75.5-1.18.49-.44 1.15-.44.63 0 1.13.44.49.43.49 1.18 0 .69-.48 1.17t-1.17.48" paint-order="stroke"></path><rect width="3.27" height="22.8" x="-1.64" y="-11.4" fill="none" rx="0" ry="0" transform="translate(513.6 100.65)"></rect><path fill="#7b7ddb" d="M521.305 118.57q-.54 0-.85-.31-.32-.32-.32-.86v-14.16q.03-2.34 1.13-4.21 1.09-1.88 2.97-2.96 1.87-1.08 4.21-1.08 2.4 0 4.29 1.1 1.89 1.09 2.99 2.98 1.09 1.89 1.09 4.29 0 2.37-1.06 4.26-1.07 1.89-2.9 2.99-1.83 1.09-4.14 1.09-2.01 0-3.64-.85-1.64-.86-2.63-2.27v8.82q0 .54-.31.86-.32.31-.83.31m7.14-8.97q1.74 0 3.12-.81 1.38-.81 2.18-2.23.79-1.43.79-3.2 0-1.8-.79-3.21-.8-1.41-2.18-2.23-1.38-.83-3.12-.83-1.71 0-3.09.83-1.38.82-2.16 2.23-.78 1.41-.78 3.21 0 1.77.78 3.2.78 1.42 2.16 2.23 1.38.81 3.09.81" paint-order="stroke"></path><rect width="16.68" height="23.58" x="-8.34" y="-11.79" fill="none" rx="0" ry="0" transform="translate(528.98 107.28)"></rect><path fill="#7b7ddb" d="M547.075 111.7q-1.77 0-3.51-.6-1.74-.6-2.82-1.8-.33-.36-.27-.81.06-.45.45-.78.42-.3.87-.24t.75.39q.72.84 1.91 1.29 1.18.45 2.62.45 2.22 0 3.21-.76.99-.77 1.02-1.85 0-1.08-1.02-1.78-1.02-.71-3.36-1.1-3.03-.48-4.44-1.68-1.41-1.2-1.41-2.85 0-1.53.81-2.55.81-1.02 2.16-1.53t2.97-.51q2.01 0 3.47.69 1.45.69 2.35 1.86.3.39.24.81-.06.42-.48.69-.36.21-.82.14-.47-.08-.8-.44-.75-.87-1.74-1.27-.99-.41-2.28-.41-1.65 0-2.64.68-.99.67-.99 1.69 0 .69.38 1.2.37.51 1.29.9.91.39 2.56.66 2.25.36 3.56 1.07 1.3.7 1.86 1.65.55.94.55 2.05 0 1.41-.82 2.48-.83 1.06-2.28 1.66-1.46.6-3.35.6" paint-order="stroke"></path><rect width="13.08" height="16.71" x="-6.54" y="-8.36" fill="none" rx="0" ry="0" transform="translate(547.49 103.85)"></rect><path fill="#fff" d="M57.296 89.633q-1.4-.025-2.323-.991-.933-.957-.909-2.356l.842-48.083q.026-1.47.991-2.363.956-.893 2.356-.869l32.125.563q1.4.024 2.295.91.894.896.87 2.295-.023 1.26-.948 2.114-.925.864-2.325.84l-28.835-.505-.314 17.917 20.787.364q1.47.026 2.334.91.855.896.831 2.226t-.908 2.184q-.895.865-2.365.839l-20.787-.364-.32 18.267 28.836.505q1.4.025 2.294.91.895.896.873 2.156-.025 1.4-.95 2.254-.925.864-2.325.84Z" paint-order="stroke"></path><rect width="38.64" height="54.67" x="-19.32" y="-27.34" fill="none" rx="0" ry="0" transform="rotate(1 -3571.88 4277.84)"></rect></svg></svg>