<svg xmlns="http://www.w3.org/2000/svg" version="1.1" xmlns:xlink="http://www.w3.org/1999/xlink" width="2000" height="98" viewBox="0 0 2000 98"><svg xml:space="preserve" width="2000" height="98" data-version="2" data-id="lg_UmOXlbOeTtmRoDI3be" viewBox="0 0 562 98" x="0" y="0"><rect width="100%" height="100%" fill="transparent"></rect><path fill="#111" d="M22.745 96.2q-.99 0-2.65-4.13-1.65-4.14-1.93-10.38-5.02-.71-8.38-4.16-3.37-3.45-3.37-9.63 0-6.73 3.2-13.93 3.2-7.2 8.55-14.1-6.34-1.44-9.46-5.38-3.12-3.95-3.12-9.02 0-4.14 3.09-8.44 3.09-4.31 8.47-8 5.38-3.7 12.25-5.96Q36.265.8 43.825.8q1.82 0 3.14.25 1.33.25 1.33.69 0 .44-.72.44-.61 0-1.63-.11t-2.4-.11q-5.51 0-11.69 2.1t-11.62 5.71q-5.43 3.62-8.85 8.25t-3.42 9.71q0 3.53 2.89 6.59 2.9 3.07 8.31 4.28 5.62-6.95 12.85-13.13 7.23-6.18 15.23-10.9 8-4.72 15.95-7.42 7.94-2.7 15-2.7 2.38 0 3.95.91 1.57.91 1.57 3.17 0 3.75-3.53 8t-9.49 8.33q-5.96 4.08-13.35 7.51-7.4 3.42-15.23 5.6-7.84 2.18-14.95 2.51-7.4 8.11-12.22 15.94-4.83 7.84-4.83 13.58 0 4.35 2.18 6.86 2.18 2.52 5.87 3.29 0-7.56 2.79-14.54 2.79-6.98 7.48-12.47t10.51-8.66q5.82-3.18 11.94-3.18 4.64 0 7.09 2.13 2.46 2.12 2.46 5.6 0 4.74-3.04 10.4-3.03 5.65-8.47 10.76-5.43 5.1-12.63 8.39-7.2 3.28-15.53 3.28-.67 0-1-.06.11 2.98.8 7.04.69 4.05 2.46 6.37.22.28.22.44v.28q0 .27-.5.27m5.8-57.21q6.07-.61 13.29-3.04 7.23-2.43 14.38-5.9 7.14-3.48 13.07-7.4 5.93-3.91 9.52-7.58t3.59-6.37q0-1.61-1.19-2.27-1.19-.66-3.12-.66-4.08 0-10.04 2.73-5.96 2.73-12.8 7.45-6.84 4.72-13.74 10.65-6.89 5.93-12.96 12.39m-7.18 41.43q4.47 0 9.22-2.42 4.74-2.43 9.16-6.32 4.41-3.89 7.94-8.39 3.53-4.5 5.6-8.8 2.07-4.3 2.07-7.39 0-4.31-5.07-4.31-4.69 0-9.99 2.9t-9.96 8.03q-4.66 5.13-7.62 11.94-2.95 6.82-2.95 14.65v.06q.39.05.8.05z"></path><rect width="78.13" height="95.4" x="-39.06" y="-47.7" fill="none" rx="0" ry="0" transform="translate(45.15 49)"></rect><path fill="#111" d="M69.375 81.86q-4.64 0-6.85-2.13-2.2-2.12-2.48-5.21-.16-3.75 1.57-8.06 1.74-4.3 3.78-7.22 2.71-3.81 6.57-7.31 3.86-3.51 8.47-5.74 4.61-2.24 9.46-2.24 2.93 0 5.05 1.52 2.12 1.52 2.34 4.83.28 4.69-1.82 9.85-2.09 5.16-5.68 9.57.39 1.6 2.48 1.6 2.05 0 4.47-1.63 2.43-1.63 4.72-3.83 2.29-2.21 3.95-4.09 1.65-1.87 2.2-2.42l1.22.93q-1.05 1-2.98 3.07t-4.28 4.25q-2.34 2.17-4.8 3.72-2.45 1.54-4.61 1.54-2.64 0-3.58-1.65-4.09 4.63-9.19 7.64t-10.01 3.01m1.43-1.66q1.93 0 4.47-1.1t5.08-2.92q4.24-3.04 7.67-7.12v-.22q0-3.42 1.79-5.44 1.79-2.01 3.5-2.56 2.71-5.63 2.43-10.1-.17-2.7-1.41-3.75-1.24-1.05-2.73-1.05-3.2 0-7.86 3.78t-10.4 10.9q-4.08 5.13-5.71 8.66-1.63 3.53-1.41 6.12 0 1.49 1.02 3.15 1.02 1.65 3.56 1.65"></path><rect width="48.85" height="37.91" x="-24.42" y="-18.95" fill="none" rx="0" ry="0" transform="translate(84.9 63.4)"></rect><path fill="#111" d="M104.955 81.86q-3.58 0-5.13-1.77-1.54-1.76-1.6-3.8-.22-4.09 3.07-8.89 3.28-4.8 9.4-11.97 2.15-2.54 4.5-5.46 2.34-2.93 4.88-5.69 1.88.33 4.42.33.77 0 2.15-.05 1.38-.06 1.82-.11-4.69 5.02-9.38 10.59-4.69 5.58-8.39 10.1-1.21 1.49-3.14 3.72-1.93 2.24-3.4 4.75-1.46 2.51-1.4 4.88 0 .77.55 1.38.55.61 2.1.61 1.1 0 3.44-.72 2.35-.72 5-2.43 3.69-2.48 8.38-6.81 4.69-4.33 10.21-11.17l1.99-2.43q.77-.94 1.43-1.71 1.93-2.37 4.2-5.08 2.26-2.7 4.91-5.85 1.76.17 2.48.25.72.08 1.93.08 2.59 0 3.97-.16-3.25 3.53-7.42 8.55-4.16 5.02-8.25 10.07-4.08 5.05-7.17 8.86-2.65 3.09-3.34 4.22t-.69 2.18q.06.66.47 1.32.42.66 2.4.66 2.93 0 6.37-1.93 3.45-1.93 6.85-4.83 3.39-2.89 6.34-5.93 2.95-3.03 5-5.35 2.04-2.32 2.64-2.92l1.11.93q-.66.72-2.79 3.09-2.12 2.38-5.21 5.49-3.09 3.12-6.65 6.1-3.56 2.98-7.2 4.94-3.64 1.96-6.84 1.96-2.21 0-3.7-1.24-1.49-1.24-1.55-3.45-.05-1.99.58-4.14.64-2.15 2.18-4.86-6.89 7.45-12.36 10.76-2.81 1.71-5.13 2.32-2.32.61-4.03.61"></path><rect width="59.51" height="37.58" x="-29.76" y="-18.79" fill="none" rx="0" ry="0" transform="translate(128.4 63.57)"></rect><path fill="#111" d="M152.635 81.86q-3.04 0-4.56-1.22-1.51-1.21-1.51-3.09 0-1.49.38-2.95.39-1.46 1.66-3.72 1.27-2.26 3.86-6.1 2.59-3.83 7.01-10.07l14.23-20.03h-4.36q-1.65 0-1.65-.71 0-.89 2.1-.89h5.02l10.2-14.34q.72.11 1.91.19 1.18.08 3.39.03 1.1 0 2.37-.22l-10.65 14.34h14.24q1.55 0 1.55.78 0 .82-1.38.82h-15.62l-14.57 19.65q-5.18 6.95-8.33 11.42-3.14 4.47-4.77 7.06-1.63 2.59-2.21 3.86-.58 1.27-.58 1.88 0 1.65 2.76 1.76 3.81-.05 7.87-2.51 4.05-2.45 7.8-6.01 3.75-3.56 6.73-7.01 2.98-3.45 4.64-5.43l1.21.93q-1.6 1.88-4.69 5.41-3.09 3.53-7.09 7.26-4 3.72-8.36 6.31-4.36 2.6-8.6 2.6"></path><rect width="51.26" height="63.12" x="-25.63" y="-31.56" fill="none" rx="0" ry="0" transform="translate(172.7 50.8)"></rect><path fill="#111" d="M177.465 81.86q-3.59 0-5.14-1.77-1.54-1.76-1.6-3.8-.22-4.09 3.07-8.89 3.28-4.8 9.4-11.97 2.16-2.54 4.5-5.46 2.35-2.93 4.88-5.69 1.88.33 4.42.33.77 0 2.15-.05 1.38-.06 1.82-.11-4.69 5.02-9.38 10.59-4.69 5.58-8.39 10.1-1.21 1.49-3.14 3.72-1.93 2.24-3.39 4.75-1.47 2.51-1.41 4.88 0 .77.55 1.38.55.61 2.1.61 1.1 0 3.45-.72 2.34-.72 4.99-2.43 3.7-2.48 8.39-6.81t10.2-11.17l1.99-2.43q.77-.94 1.43-1.71 1.93-2.37 4.2-5.08 2.26-2.7 4.91-5.85 1.76.17 2.48.25.72.08 1.93.08 2.6 0 3.97-.16-3.25 3.53-7.42 8.55-4.16 5.02-8.25 10.07-4.08 5.05-7.17 8.86-2.65 3.09-3.34 4.22t-.69 2.18q.06.66.47 1.32.42.66 2.4.66 2.93 0 6.38-1.93 3.44-1.93 6.84-4.83 3.39-2.89 6.34-5.93 2.95-3.03 5-5.35 2.04-2.32 2.64-2.92l1.11.93q-.66.72-2.79 3.09-2.12 2.38-5.21 5.49-3.09 3.12-6.65 6.1-3.56 2.98-7.2 4.94-3.64 1.96-6.84 1.96-2.21 0-3.7-1.24-1.49-1.24-1.54-3.45-.06-1.99.57-4.14.64-2.15 2.18-4.86-6.89 7.45-12.36 10.76-2.81 1.71-5.13 2.32-2.31.61-4.02.61"></path><rect width="59.51" height="37.58" x="-29.76" y="-18.79" fill="none" rx="0" ry="0" transform="translate(200.9 63.57)"></rect><path fill="#111" d="M237.825 81.86q-3.09 0-5.02-1.57-1.93-1.58-1.93-4.11 0-4.42 6.45-10.65 6.46-6.24 17.49-13.63-5.63-.94-9.68-1.88-4.06-.94-6.48-2.04-1.11 2.21-3.2 5.41-2.1 3.2-5.36 6.89-2.2 2.6-3.31 3.65-1.1 1.04-1.51 1.24-.42.19-.47.3-.17.06-.2-.33-.02-.39.03-.61 0-.22.83-1.05.83-.82 3.47-4.13 2.76-3.48 4.91-6.62 2.16-3.15 3.32-5.52-1.99-1.27-2.32-2.82-.44-2.64 1.05-4.8 1.49-2.15 3.86-2.15 2.92 0 2.92 2.54 0 1.27-.49 2.15-.5.88-1 1.71-.99 1.16-.99 2.93 0 .55 1.9 1.18 1.91.64 4.69 1.22 2.79.58 5.49.99 2.71.41 4.25.52 1.05.06 1.3.36.25.31.25.47 0 .55-1.6 1.82-3.04 2.32-6.24 5.6-3.2 3.29-5.96 6.79t-4.47 6.59q-1.71 3.09-1.71 5.08 0 2.59 2.1 2.59 2.7 0 5.9-1.82t6.49-4.58q3.28-2.76 6.18-5.71 2.89-2.95 4.99-5.3 2.1-2.34 2.92-3.22l1.11.93q-1.22 1.16-3.45 3.67-2.24 2.51-5.21 5.58-2.98 3.06-6.49 5.87-3.5 2.82-7.25 4.64-3.76 1.82-7.56 1.82"></path><rect width="43.19" height="44.42" x="-21.6" y="-22.21" fill="none" rx="0" ry="0" transform="translate(246.69 60.15)"></rect><path fill="#111" d="M270.655 82.08q-5.41 0-7.73-2.82-2.31-2.81-2.43-6.89-.05-2.98 1.22-6.62t2.65-5.58q4.08-5.68 8.83-9.27 4.74-3.58 9.29-5.26 4.55-1.69 8.03-1.69 3.37 0 4.72 1.11 1.35 1.1 1.4 2.53.17 2.16-2.28 5-2.46 2.84-8.58 6.15-6.13 3.31-17.11 6.95-1.93 3.09-2.59 5.33-.66 2.23-.66 4 0 2.59 1.73 4.02 1.74 1.44 4.11 1.44 5.19 0 9.74-1.96t8.33-4.94q3.78-2.98 6.65-6.04 2.87-3.06 4.69-5.35 1.82-2.29 2.43-2.84l1.16.93q-.83.72-2.79 3.15-1.96 2.43-4.96 5.57-3.01 3.15-6.93 6.13t-8.69 4.96q-4.77 1.99-10.23 1.99m-.72-18.32q10.7-3.75 16.88-7.75t6.18-7.64q0-3.09-2.87-3.09-3.69 0-8 3.97-4.3 3.97-10.04 11.53-1.21 1.55-2.15 2.98"></path><rect width="43.77" height="38.13" x="-21.89" y="-19.07" fill="none" rx="0" ry="0" transform="translate(282.87 63.52)"></rect><path fill="#111" d="M343.535 84.12q-1.32 0-1.32-.83 0-.44.47-.71.47-.28 2.01-.67 1.77-.27 3.59-1.38 1.82-1.1 4.55-4.3 2.73-3.2 7.15-9.66 2.98-4.35 5.68-8.19 2.7-3.83 5.71-7.83t6.81-8.75q5.19-6.46 10.96-12.55 5.76-6.1 13.43-13.49 1.44-1.38 3.67-3.59l4.33-4.27q2.1-2.07 3.04-2.96 1.1-1.1 2.32-1.76 1.21-.66 1.82-.66.99 0 .99.49 0 .39-.47.64-.47.24-1.02.69-.55.33-1.52.96-.96.64-2.4 2.18-1.65 1.66-3.25 3.5-1.6 1.85-3.92 4.86-2.32 3.01-6.1 8.17t-9.74 13.43q-7.06 9.88-13.38 17.16-6.31 7.28-12.44 13.19-6.12 5.9-12.8 11.59 3.2-1.83 6.54-3.98t7.7-5.63q4.35-3.47 10.53-9.13 6.18-5.65 15.12-14.43 14.57-14.4 24.11-22.81 9.55-8.41 14.87-12.5 5.33-4.08 7.15-5.41 3.09-2.2 4.28-2.86 1.18-.67 1.51-.67.83 0 .83.78 0 .38-.58.77-.58.38-2.56 1.38-2.16 1.05-4.78 3.56t-4.55 5.49q-3.36 5.35-7.59 12.71-4.22 7.37-8.82 14.96-4.61 7.58-9.14 13.71-1.54 2.15-4.99 6.56-3.45 4.42-7.31 9.38 4.75-4.96 8.33-8.66 3.59-3.69 6.87-7.01 3.28-3.31 7.01-6.92 3.72-3.61 8.66-8.33 4.94-4.72 11.89-11.29 12.75-12.02 22.95-18.56 10.21-6.54 18.6-6.54 5.52 0 8.77 1.96 3.26 1.96 3.26 5.71 0 4.8-4.17 7.78-4.16 2.98-9.79 2.98-2.04 0-4.33-.72t-3.87-1.85q-1.57-1.13-1.57-2.34 0-1.82 1.38-1.82.77 0 1.02.36.25.35.47 1.51.28 1.33 1.55 2.16 1.26.82 2.78 1.21 1.52.39 2.46.39 2.26 0 4.83-1.08 2.56-1.08 4.41-3.2 1.85-2.13 1.85-5.27 0-3.53-3.01-4.8t-6.7-1.27q-3.42 0-7.51 1.35-4.08 1.35-9.38 4.66-5.29 3.32-12.33 9.11-7.03 5.79-16.36 14.73-3.86 3.7-7.64 7.37t-8.03 7.83q-4.25 4.17-9.43 9.41-5.19 5.24-11.81 12.19-6.02 6.29-10.76 9.05-4.75 2.76-6.12 2.76-1.05 0-1.05-.88 0-.72 1.6-1.22 2.04-.66 3.45-1.49 1.4-.82 2.81-2.51 1.41-1.68 3.34-4.91 1.93-3.22 5.07-8.8 2.32-4.14 5.27-8.96 2.95-4.83 5.99-9.47 3.03-4.63 5.52-8.05 1.16-1.49 3.5-4.47 2.35-2.98 5.27-6.59 2.92-3.62 5.79-7.12 2.87-3.51 5.02-6.1-3.03 2.26-6.67 5.08-3.64 2.81-7.12 6.07-4.14 3.91-9.46 9.29-5.33 5.38-12.66 12.53-7.34 7.14-17.61 16.41-6.89 6.24-13.65 11.15-6.76 4.91-11.84 7.17-2.04.88-4.16 1.88-2.13.99-3.18.99m-18.09-50.98q-.78 0-.78-.88 0-1.16 1.3-4.5t4.88-7.2q6.02-6.4 13.16-9.24 7.15-2.85 13.44-2.85 4.19 0 8.66.97t8.55 2.4q5.25 1.88 8.22 2.68 2.98.8 6.57.8 2.98 0 7.73-1.66 4.74-1.65 8.99-5.19 1.6-1.32 1.76-1.32.56 0 .56.39 0 .38-.89 1.16-6.12 5.62-11.75 7.69-5.63 2.07-11.31 2.07-4.52 0-8.5-.85-3.97-.86-9.43-2.62-3.64-1.22-6.24-1.69-2.59-.47-5.9-.47-4.3 0-8.91 1.41t-8.64 3.95q-4.02 2.53-6.78 5.95-1.38 1.71-2.46 3.78-1.07 2.07-1.07 3.78 0 .72-.42 1.08-.41.36-.74.36"></path><rect width="165.7" height="82.16" x="-82.85" y="-41.08" fill="none" rx="0" ry="0" transform="translate(408.01 43.54)"></rect><path fill="#111" d="M425.365 81.86q-3.53 0-5.16-1.93-1.63-1.93-1.63-5.3 0-3.7 1.58-7.89 1.57-4.19 5.21-8.33 7.45-8.66 13.93-11.56 6.49-2.9 12.17-2.9 2.87 0 4.85 1.22 1.99 1.21 1.99 3.31 0 1.6-.66 3.25 1.76-2.09 3-3.67 1.25-1.57 2.41-3 1.43.44 3.31.44.77 0 2.09-.06 1.33-.05 2.04-.16l-18.59 22.4q-3.53 4.19-5.08 6.81-1.54 2.62-1.54 4.06 0 1.76 1.71 1.76 2.98 0 6.18-1.73 3.2-1.74 6.29-4.47 3.09-2.74 5.79-5.69 2.71-2.95 4.77-5.46 2.07-2.51 3.18-3.72l1.1.93q-1.21 1.38-3.42 3.98-2.21 2.59-5.05 5.62-2.84 3.04-6.12 5.8-3.29 2.76-6.73 4.52-3.45 1.77-6.82 1.77-5.52 0-5.52-3.42 0-1.27.47-2.57.47-1.3 1.91-3.36 1.43-2.07 4.3-5.55l-.55-.22q-6.73 8.28-12.44 11.7-5.71 3.42-8.97 3.42m.22-1.66q3.53 0 9.33-4.11 5.79-4.11 13.9-13.71l2.46-2.98q1.13-1.38 2.17-2.59 1.27-1.93 2.29-4.03 1.03-2.1 1.03-3.81t-1.22-2.51q-1.21-.8-2.65-.8-2.7 0-8.74 3.89t-13.27 12.44q-4.14 4.97-5.96 8.83-1.82 3.87-1.82 6.51 0 2.87 2.48 2.87"></path><rect width="55.73" height="37.91" x="-27.86" y="-18.95" fill="none" rx="0" ry="0" transform="translate(446.94 63.4)"></rect><path fill="#111" d="M469.005 81.86q-6.18 0-6.18-4.58 0-1.99.78-4.06.77-2.07 3.06-5.38t6.81-8.99q2.43-3.09 5.99-6.73 3.56-3.64 7.75-7.84l2.6.25q.82.08 2.09.08 2.48 0 3.97-.16-3.8 3.42-6.09 5.82-2.29 2.4-4.17 4.58-1.87 2.18-4.47 4.94-1.38 1.43-3.75 3.86-2.37 2.43-4.83 5.16-2.45 2.73-4.16 5.16t-1.71 3.92q0 1.82.85 2.17.86.36 2.24.36 4.08 0 8.82-2.18 4.75-2.18 9.55-5.62 4.8-3.45 9.05-7.15 4.03-3.59 5.96-6.54 1.93-2.95 2.54-5.76.6-2.82.6-5.91 0-2.04 1.27-3.34 1.27-1.29 3.09-1.29 3.09 0 3.09 3.03 0 1.55-.8 3.78-.8 2.24-3.17 5.44t-7.01 7.72l-1.49 1.38q-1.87 2.54-2.26 4.83-.39 2.29 2.59 2.29 1.88 0 4.22-1.35 2.35-1.35 4.67-3.31 2.31-1.96 4.27-3.92 1.96-1.96 3.01-3.17l1.16.93q-1.82 1.99-4.88 4.89-3.07 2.89-6.49 5.1-3.42 2.21-6.4 2.21-2.7 0-3.39-1.6t.52-4.25q-4.08 3.42-9.27 6.95-5.18 3.53-10.45 5.91-5.27 2.37-9.58 2.37"></path><rect width="56.12" height="39.23" x="-28.06" y="-19.61" fill="none" rx="0" ry="0" transform="translate(491.38 62.74)"></rect><path fill="#111" d="M521.815 82.08q-5.41 0-7.73-2.82-2.31-2.81-2.43-6.89-.05-2.98 1.22-6.62t2.65-5.58q4.08-5.68 8.83-9.27 4.74-3.58 9.29-5.26 4.55-1.69 8.03-1.69 3.37 0 4.72 1.11 1.35 1.1 1.41 2.53.16 2.16-2.29 5-2.46 2.84-8.58 6.15-6.13 3.31-17.11 6.95-1.93 3.09-2.59 5.33-.66 2.23-.66 4 0 2.59 1.73 4.02 1.74 1.44 4.11 1.44 5.19 0 9.74-1.96t8.33-4.94q3.78-2.98 6.65-6.04 2.87-3.06 4.69-5.35 1.82-2.29 2.43-2.84l1.16.93q-.83.72-2.79 3.15-1.96 2.43-4.96 5.57-3.01 3.15-6.93 6.13-3.91 2.98-8.69 4.96-4.77 1.99-10.23 1.99m-.72-18.32q10.7-3.75 16.88-7.75t6.18-7.64q0-3.09-2.87-3.09-3.69 0-8 3.97-4.3 3.97-10.04 11.53-1.21 1.55-2.15 2.98"></path><rect width="43.77" height="38.13" x="-21.89" y="-19.07" fill="none" rx="0" ry="0" transform="translate(534.03 63.52)"></rect></svg></svg>